<?xml version="1.0" standalone="no"?>
<!DOCTYPE svg PUBLIC "-//W3C//DTD SVG 20010904//EN"
 "http://www.w3.org/TR/2001/REC-SVG-20010904/DTD/svg10.dtd">
<svg version="1.0" xmlns="http://www.w3.org/2000/svg"
 width="1125.000000pt" height="1125.000000pt" viewBox="0 0 1125.000000 1125.000000"
 preserveAspectRatio="xMidYMid meet">
<metadata>
Created by potrace 1.11, written by Peter Selinger 2001-2013
</metadata>
<g transform="translate(0.000000,1125.000000) scale(0.100000,-0.100000)"
fill="#000000" stroke="none">
<path d="M5305 11240 c-577 -47 -1124 -227 -1620 -534 -444 -274 -845 -664
-1127 -1096 -339 -519 -536 -1094 -588 -1720 -22 -264 -3 -732 40 -960 48
-257 87 -417 140 -580 124 -373 336 -777 579 -1099 31 -41 65 -86 76 -100 119
-159 434 -501 694 -756 214 -209 517 -529 603 -636 100 -125 618 -898 618
-923 0 -2 17 -33 39 -67 83 -138 283 -523 348 -674 173 -397 294 -785 382
-1230 11 -55 22 -118 26 -140 3 -22 10 -67 16 -100 18 -110 40 -298 51 -457
12 -162 28 -211 28 -90 1 37 5 110 10 162 40 413 103 769 196 1110 41 148 101
338 114 362 6 10 10 22 10 28 0 13 77 208 139 352 114 264 318 645 516 958 12
19 59 96 105 170 353 568 480 730 1066 1354 78 83 172 187 209 231 38 44 102
119 144 166 355 402 622 798 803 1190 35 75 68 149 74 165 181 459 254 881
241 1384 -6 213 -10 258 -48 500 -85 551 -334 1131 -678 1585 -250 329 -574
635 -900 849 -529 348 -1102 546 -1731 596 -124 10 -447 10 -575 0z m531 -190
c587 -46 1166 -258 1655 -606 317 -226 625 -548 842 -879 270 -414 448 -894
514 -1392 21 -164 24 -635 5 -798 -92 -757 -441 -1464 -983 -1990 -263 -256
-508 -428 -834 -589 -370 -183 -635 -262 -1095 -327 -121 -17 -459 -22 -620
-10 -688 53 -1332 313 -1860 749 -124 103 -326 303 -426 422 -628 748 -891
1727 -724 2695 118 680 430 1277 926 1771 424 423 918 706 1495 858 344 90
736 125 1105 96z"/>
<path d="M5350 10219 c-420 -55 -665 -130 -964 -296 -270 -149 -543 -378 -735
-618 -92 -114 -212 -301 -280 -435 -56 -109 -121 -261 -121 -281 0 -5 904 -9
2315 -9 2043 0 2315 2 2315 15 0 20 -64 172 -115 275 -186 370 -508 730 -860
959 -322 210 -657 331 -1050 381 -167 21 -384 25 -505 9z"/>
<path d="M3098 7744 c-27 -27 19 -398 76 -614 114 -433 345 -824 671 -1139
332 -319 715 -530 1155 -636 153 -36 150 -37 149 33 0 55 -8 136 -30 312 -58
460 -282 981 -574 1330 -302 362 -732 622 -1148 694 -105 19 -289 31 -299 20z"/>
<path d="M7808 7735 c-463 -64 -904 -322 -1218 -712 -237 -293 -393 -596 -496
-960 -46 -163 -92 -443 -101 -605 l-6 -128 23 0 c35 0 224 48 335 85 626 209
1157 672 1445 1259 60 124 125 300 174 476 32 112 66 351 69 473 l2 122 -65 2
c-36 1 -109 -5 -162 -12z"/>
</g>
</svg>
